<svg width="24" height="24" viewBox="0 0 24 24" fill="none" xmlns="http://www.w3.org/2000/svg">
<path d="M6.05013 8.04997C4.74092 9.35941 4.00376 11.1342 4.00001 12.9858C3.99627 14.8375 4.72623 16.6152 6.03013 17.93C7.50013 14.53 10.1201 11.69 13.3901 9.99997C10.5677 12.3881 8.66245 15.6826 8.00013 19.32C10.6001 20.55 13.8001 20.1 15.9501 17.95C18.9401 14.96 19.7801 6.80997 19.9601 4.56997C19.9664 4.4988 19.957 4.42711 19.9326 4.35996C19.9082 4.29281 19.8693 4.23183 19.8188 4.18131C19.7683 4.13079 19.7073 4.09195 19.6401 4.06753C19.573 4.04311 19.5013 4.0337 19.4301 4.03997C17.1901 4.21997 9.04013 5.05997 6.05013 8.04997V8.04997Z" fill="url(#paint0_linear_29_94)"/>
<defs>
<linearGradient id="paint0_linear_29_94" x1="11.981" y1="4.03809" x2="11.981" y2="19.9944" gradientUnits="userSpaceOnUse">
<stop stop-color="#FFBF00"/>
<stop offset="1" stop-color="#F2A50C"/>
</linearGradient>
</defs>
</svg>
